<svg
  xmlns="http://www.w3.org/2000/svg"
  viewBox="0 0 600 140"
  width="600"
  height="140"
>
  <!-- Tish ikonasi chap tomonda -->
  <g transform="scale(0.22) translate(0, 0)">
    <path
      fill="#2A5D9F"
      stroke="#ffffff"
      stroke-width="4"
      d="M248.75 32.98C279.86 12.01 325.49-.76 369.08.04c40.96.74 80.51 13.37 105.55 42.21 8.26 9.5 14.86 20.46 20.13 32.81 5.18 12.13 9.07 25.51 11.98 40.1 5.67 28.47 6.5 60.19 3.71 92.89-3.08 36.03-10.54 73.33-20.72 108.82-7.4 25.79-29.36 89.95-57.64 136.02-18.59 30.27-40.4 53.19-64.01 54.69-11.5.74-22.05-3.65-31.7-12.95-8.46-8.17-16.23-20.34-23.34-36.35l-.2-.39-9.21-23.33c-1.29-3.28-2.88-7.64-4.61-12.38-8.88-24.36-21.92-60.13-40.76-64.68-15.77-3.8-28.37 27.21-36.13 46.29-.94 2.32-1.82 4.48-3.44 8.22-.85 1.95-2.73 6.59-4.84 11.81-12.59 31.08-33.9 83.7-64.24 84.61-10.48.32-20.75-4.25-30.81-13.48-8.81-8.09-17.67-20.02-26.57-35.59-5.8-10.03-11.93-21.79-18.21-34.89-6-12.55-12.12-26.38-18.18-41.18-11.12-27.19-24.47-62.25-35.24-99.79C9.71 245.5 1.3 204.55.12 165.71c-.73-24.27 1.78-47.83 7.97-69.19C14 76.14 23.26 57.76 36.24 42.62 61.71 12.95 95.24.99 130.43.25c40.8-.85 83.74 13.58 118.32 32.73z"
    />
  </g>

  <!-- Matn: DrMuslim -->
  <text
    x="160"
    y="90"
    fill="#2A5D9F"
    stroke="#ffffff"
    stroke-width="1"
    font-size="48"
    font-family="'Segoe UI', sans-serif"
    font-weight="bold"
  >
    DrMuslim
  </text>
</svg>
